<svg width="140" height="38" viewBox="0 0 140 38" fill="none" xmlns="http://www.w3.org/2000/svg">
<path d="M10.3102 29.3025C8.31289 29.3025 6.54604 28.848 5.00964 27.9389C3.47324 27.0171 2.26973 25.756 1.39911 24.1555C0.528482 22.5551 0.0931695 20.7499 0.0931695 18.7397C0.0931695 16.7168 0.528482 14.918 1.39911 13.3432C2.26973 11.7683 3.47324 10.5328 5.00964 9.63659C6.54604 8.74036 8.31289 8.29225 10.3102 8.29225C12.3075 8.29225 14.0744 8.74036 15.6108 9.63659C17.1472 10.5328 18.3507 11.7683 19.2213 13.3432C20.0919 14.918 20.5273 16.7168 20.5273 18.7397C20.5273 20.7499 20.0919 22.5551 19.2213 24.1555C18.3507 25.756 17.1472 27.0171 15.6108 27.9389C14.0744 28.848 12.3075 29.3025 10.3102 29.3025ZM10.3102 27.1323C11.8466 27.1323 13.1974 26.7738 14.3625 26.0568C15.5404 25.3399 16.4622 24.3476 17.128 23.0801C17.7937 21.8125 18.1266 20.3658 18.1266 18.7397C18.1266 17.1009 17.7937 15.6606 17.128 14.4186C16.4622 13.1767 15.5404 12.2101 14.3625 11.5187C13.1974 10.8145 11.8466 10.4624 10.3102 10.4624C8.78662 10.4624 7.43587 10.8145 6.25796 11.5187C5.08006 12.2101 4.15822 13.1767 3.49245 14.4186C2.82668 15.6606 2.49379 17.1009 2.49379 18.7397C2.49379 20.3658 2.82668 21.8125 3.49245 23.0801C4.15822 24.3476 5.08006 25.3399 6.25796 26.0568C7.43587 26.7738 8.78662 27.1323 10.3102 27.1323ZM23.2469 37.3494V8.56112H25.6283V37.3494H23.2469ZM32.6573 29.3217C31.0953 29.3217 29.6486 28.944 28.317 28.1886C26.9855 27.4332 25.91 26.4089 25.0906 25.1158C24.284 23.8227 23.8807 22.3695 23.8807 20.7563C23.8807 20.7179 23.8807 20.6859 23.8807 20.6602C23.8807 20.6346 23.8807 20.609 23.8807 20.5834L25.6283 20.545C25.6283 20.5706 25.6283 20.5962 25.6283 20.6218C25.6283 20.6474 25.6283 20.673 25.6283 20.6987C25.6283 21.851 25.942 22.9136 26.5694 23.8867C27.1967 24.8597 28.0161 25.6343 29.0276 26.2105C30.0519 26.7866 31.1594 27.0747 32.3501 27.0747C34.3218 27.0747 35.9414 26.3769 37.2089 24.9814C38.4893 23.573 39.1294 21.4989 39.1294 18.759C39.1294 16.0062 38.4893 13.9321 37.2089 12.5365C35.9414 11.141 34.3218 10.4432 32.3501 10.4432C31.1594 10.4432 30.0519 10.7313 29.0276 11.3074C28.0161 11.8836 27.1967 12.6518 26.5694 13.612C25.942 14.5723 25.6283 15.6349 25.6283 16.8L23.8807 16.7424C23.8807 15.1292 24.284 13.6824 25.0906 12.4021C25.91 11.1218 26.9855 10.1167 28.317 9.38693C29.6486 8.64434 31.0953 8.27304 32.6573 8.27304C34.309 8.27304 35.807 8.68275 37.1513 9.50216C38.4957 10.3088 39.5647 11.4931 40.3585 13.0551C41.1651 14.6171 41.5684 16.5184 41.5684 18.759C41.5684 21.0251 41.1715 22.9456 40.3777 24.5204C39.5967 26.0952 38.5277 27.2924 37.1705 28.1118C35.8262 28.9184 34.3218 29.3217 32.6573 29.3217ZM44.7394 19.7576V17.6259H61.2557L60.7948 18.2788C60.7948 18.202 60.7948 18.138 60.7948 18.0868C60.7948 18.0228 60.7948 17.9587 60.7948 17.8947C60.7948 16.576 60.5131 15.3469 59.9498 14.2074C59.3864 13.0679 58.567 12.1524 57.4915 11.4611C56.4289 10.7697 55.1293 10.424 53.5929 10.424C52.0309 10.424 50.6546 10.7825 49.4639 11.4995C48.2731 12.2037 47.3449 13.1831 46.6791 14.4378C46.0134 15.6798 45.6805 17.1265 45.6805 18.7782C45.6805 20.4426 46.007 21.9086 46.6599 23.1761C47.3257 24.4308 48.2539 25.4103 49.4446 26.1145C50.6354 26.8058 52.0245 27.1515 53.6121 27.1515C54.7772 27.1515 55.7887 27.0107 56.6465 26.729C57.5171 26.4345 58.2341 26.0504 58.7975 25.5767C59.3736 25.103 59.8089 24.6037 60.1034 24.0787C60.4107 23.541 60.5899 23.0353 60.6411 22.5615H63.0034C62.9521 23.3169 62.7089 24.0915 62.2736 24.8853C61.8511 25.6663 61.2429 26.3961 60.4491 27.0747C59.6681 27.7533 58.695 28.3038 57.5299 28.7263C56.3776 29.136 55.0461 29.3409 53.5353 29.3409C51.5636 29.3409 49.8095 28.8928 48.2731 27.9965C46.7496 27.1003 45.546 25.8648 44.6626 24.29C43.792 22.7024 43.3567 20.8779 43.3567 18.8166C43.3567 16.7424 43.7984 14.918 44.6818 13.3432C45.5652 11.7555 46.7752 10.5136 48.3116 9.61739C49.848 8.72116 51.5956 8.27304 53.5545 8.27304C55.5518 8.27304 57.2803 8.72756 58.7398 9.63659C60.1994 10.5456 61.3261 11.7811 62.1199 13.3432C62.9137 14.8924 63.3106 16.6336 63.3106 18.5669C63.3106 18.7333 63.3042 18.9446 63.2914 19.2007C63.2914 19.4567 63.285 19.6424 63.2722 19.7576H44.7394ZM80.6954 28.9568V18.8166C80.6954 18.1892 80.6954 17.6899 80.6954 17.3186C80.6954 16.9473 80.6954 16.5824 80.6954 16.2239C80.6954 15.0844 80.4905 14.0921 80.0808 13.2471C79.6839 12.3893 79.0694 11.7235 78.2372 11.2498C77.4049 10.7633 76.3359 10.52 75.0299 10.52C73.8776 10.52 72.7957 10.8081 71.7843 11.3842C70.7728 11.9476 69.9534 12.7158 69.326 13.6888C68.7115 14.6619 68.4042 15.7566 68.4042 16.9729L66.9638 16.4352C66.9638 14.886 67.3607 13.4968 68.1545 12.2677C68.9612 11.0386 70.011 10.0655 71.3042 9.34852C72.6101 8.63154 73.9929 8.27304 75.4524 8.27304C77.0016 8.27304 78.346 8.56752 79.4855 9.15647C80.625 9.73262 81.502 10.5712 82.1166 11.6723C82.7439 12.7606 83.0576 14.0857 83.0576 15.6477C83.0576 16.1855 83.0576 16.7616 83.0576 17.3762C83.0576 17.9908 83.0576 18.5477 83.0576 19.047V28.9568H80.6954ZM66.0228 28.9568V8.56112H68.4042V28.9568H66.0228Z" fill="#222222"/>
<path fill-rule="evenodd" clip-rule="evenodd" d="M131.185 22.7539C131.424 24.2075 133.321 24.987 134.575 23.4722C135.515 22.3359 137.198 22.1768 138.334 23.1169C139.47 24.0569 139.63 25.7401 138.689 26.8764C134.289 32.1951 126.126 29.3355 125.848 22.6281C125.837 22.5331 125.832 22.4392 125.832 22.3469L125.844 8.46729C125.844 7.08543 127.04 5.96521 128.514 5.96521C129.989 5.96521 131.185 7.08544 131.185 8.4673L131.185 22.7539Z" fill="url(#paint0_linear_1434_384)"/>
<path fill-rule="evenodd" clip-rule="evenodd" d="M101.288 7.97172C102.565 8.70909 103.003 10.3422 102.265 11.6194L92.8508 27.9256C92.1134 29.2028 90.4803 29.6404 89.2032 28.903C87.926 28.1656 87.4884 26.5325 88.2258 25.2554L97.6402 8.9491C98.3776 7.67194 100.011 7.23435 101.288 7.97172Z" fill="url(#paint1_linear_1434_384)"/>
<path fill-rule="evenodd" clip-rule="evenodd" d="M115.735 29.4001C114.26 29.4001 113.065 28.2046 113.065 26.7299L113.065 12.5147C113.065 11.04 114.26 9.84444 115.735 9.84444C117.21 9.84444 118.405 11.04 118.405 12.5147L118.405 26.7299C118.405 28.2046 117.21 29.4001 115.735 29.4001Z" fill="url(#paint2_linear_1434_384)"/>
<path fill-rule="evenodd" clip-rule="evenodd" d="M117.975 18.767L116.993 18.787L113.062 18.7606C113.098 17.7576 113.699 15.8914 114.154 15.018C114.63 14.1051 115.307 13.1655 116.163 12.3593C117.885 10.7377 120.619 9.45277 123.798 10.6446C125.063 11.1192 125.705 12.53 125.23 13.7958C124.756 15.0616 123.345 15.703 122.079 15.2285C121.187 14.894 120.359 15.1322 119.519 15.9233C119.094 16.3235 118.741 16.6639 118.495 17.2808C118.376 17.8518 118.402 18.7603 118.402 18.7603L117.975 18.767Z" fill="url(#paint3_linear_1434_384)"/>
<path fill-rule="evenodd" clip-rule="evenodd" d="M125.832 13.078L125.832 10.8165L134.619 10.8166C135.619 10.8166 136.96 11.7855 136.96 13.1374C137.079 14.4342 136.017 15.7121 134.619 15.7121H125.844L125.832 13.078Z" fill="url(#paint4_linear_1434_384)"/>
<g style="mix-blend-mode:overlay" opacity="0.2">
<path d="M125.844 15.7344H131.165L131.165 18.0493H125.844V15.7344Z" fill="url(#paint5_linear_1434_384)"/>
</g>
<path fill-rule="evenodd" clip-rule="evenodd" d="M97.4789 9.2873C97.6938 8.75216 98.0829 8.28242 98.621 7.97172C99.8982 7.23435 101.531 7.67194 102.269 8.9491L111.683 25.2554C112.42 26.5325 111.983 28.1656 110.706 28.903C109.429 29.6404 107.795 29.2028 107.058 27.9256L99.9212 15.5642L99.96 15.664C98.544 12.8504 96.3577 12.5506 95.4417 12.7524L97.4679 9.25917L97.4789 9.2873Z" fill="url(#paint6_linear_1434_384)"/>
<defs>
<linearGradient id="paint0_linear_1434_384" x1="125.832" y1="5.96521" x2="144.197" y2="10.7136" gradientUnits="userSpaceOnUse">
<stop stop-color="#9D0AFC"/>
<stop offset="1" stop-color="#0359FF"/>
</linearGradient>
<linearGradient id="paint1_linear_1434_384" x1="99.2647" y1="10.6999" x2="103.585" y2="15.8912" gradientUnits="userSpaceOnUse">
<stop stop-color="#00DFBA"/>
<stop offset="1" stop-color="#048AFE"/>
</linearGradient>
<linearGradient id="paint2_linear_1434_384" x1="115.814" y1="10.5587" x2="115.814" y2="31.0731" gradientUnits="userSpaceOnUse">
<stop stop-color="#5900EB"/>
<stop offset="1" stop-color="#E367EE"/>
</linearGradient>
<linearGradient id="paint3_linear_1434_384" x1="115.389" y1="18.8124" x2="126.269" y2="11.522" gradientUnits="userSpaceOnUse">
<stop stop-color="#9129EC"/>
<stop offset="1" stop-color="#9F03FF"/>
</linearGradient>
<linearGradient id="paint4_linear_1434_384" x1="131.673" y1="12.0771" x2="137.877" y2="18.5679" gradientUnits="userSpaceOnUse">
<stop stop-color="#930FFC"/>
<stop offset="0.865143" stop-color="#004BFB"/>
</linearGradient>
<linearGradient id="paint5_linear_1434_384" x1="128.504" y1="15.7769" x2="128.504" y2="17.7865" gradientUnits="userSpaceOnUse">
<stop/>
<stop offset="1" stop-opacity="0"/>
</linearGradient>
<linearGradient id="paint6_linear_1434_384" x1="94.8343" y1="7.81232" x2="120.867" y2="14.3284" gradientUnits="userSpaceOnUse">
<stop stop-color="#0056FE"/>
<stop offset="0.815625" stop-color="#D159ED"/>
</linearGradient>
</defs>
</svg>
